<?xml version="1.0"?>
<!DOCTYPE svg PUBLIC "-//W3C//DTD SVG 1.1//EN" "http://www.w3.org/Graphics/SVG/1.1/DTD/svg11.dtd">
<svg width="95.79806836631113mm" height="81.59348803074809mm" viewBox="0 0 95.79806836631113 81.59348803074809" xmlns="http://www.w3.org/2000/svg" version="1.1">
<g id="Sketch" transform="translate(46.563317,41.165917) scale(1,-1)">
<path id="Sketch_w0000"  d="M -6.759484959679311 20.66005570196127 L -8.24128912715992 32.75069649379374 A 1.5875 1.5875 0 0 1 -9.19088 34.0164L -19.683932643154385 38.52001571498615 A 1.5875 1.5875 0 0 1 -20.9767 38.502L -24.16270900671714 37.027769844588576 A 1.5875 1.5875 0 0 1 -25.0249 36.0147L -29.16909323544573 21.199988348976703 L -18.411293634027658 10.203644830114637 A 1.5875 1.5875 0 0 0 -17.965 8.95044L -18.281353518008654 5.454180468196946 A 1.5875 1.5875 0 0 0 -18.9121 4.32558L -28.058871033364834 -2.509855565233287 A 1.5875 1.5875 0 0 0 -29.6298 -2.69938L -40.84149276197687 2.062664616812715 A 1.5875 1.5875 0 0 1 -42.5662 1.74219L -45.14940052106191 -0.758120618102345 A 1.5875 1.5875 0 0 1 -45.5859 -2.28189L -43.393631259752226 -11.098200848700468 A 1.5875 1.5875 0 0 1 -41.9031 -12.3018L -39.227903979272014 -12.386174035799417 A 1.5875 1.5875 0 0 1 -37.8056 -11.5976L -36.137470182262 -8.729677436885677 A 1.5875 1.5875 0 0 0 -33.9562 -8.16199L -26.649782798694872 -12.489901812144927 L -17.240290600682204 -4.066970417353152 A 1.5875 1.5875 0 0 0 -16.1041 -3.66418L -4.365255521205242 -4.236728420615746 A 1.5875 1.5875 0 0 0 -4.18379 -7.38861L -11.078981661045242 -8.527954305090981 A 1.5875 1.5875 0 0 1 -12.008 -9.04099L -19.491810086717617 -17.481103217235425 A 1.5875 1.5875 0 0 1 -19.8913 -18.507L -19.975277237598526 -23.393361568416925 A 1.5875 1.5875 0 0 1 -19.256 -24.7498L -11.778697974770607 -29.632799906995736 A 1.5875 1.5875 0 0 0 -11.0779 -30.7188L -10.326978322608797 -35.56417723958246 A 1.5875 1.5875 0 0 1 -9.42832 -36.7602L -3.883629632883951 -39.34198024973283 A 1.5875 1.5875 0 0 1 -1.62927 -38.0045L -0.965107426095703 -27.649539721977938 L -9.600648636959093 -21.896895247985615 A 1.5875 1.5875 0 0 0 -9.6318 -19.2758L -4.623542951200335 -15.764865207682448 A 1.5875 1.5875 0 0 0 -3.13845 -15.5846L 1.43320825271178 -17.35692356554789 A 1.5875 1.5875 0 0 1 2.72413 -17.2931L 10.691566868566579 -13.259000915706746 A 1.5875 1.5875 0 0 0 12.2259 -13.3143L 16.415617617376977 -15.830260084047755 A 1.5875 1.5875 0 0 0 17.1044 -16.6892L 20.671818936106146 -27.390422359754346 A 1.5875 1.5875 0 0 0 20.6516 -28.4515L 18.190731708070086 -34.99256650649774 A 1.5875 1.5875 0 0 1 21.0111 -36.4113L 27.376356926342527 -26.531444449151213 A 1.5875 1.5875 0 0 1 27.5956 -25.3461L 25.005877972920022 -12.985793721103432 L 21.196001973016987 -5.767270723950413 A 1.5875 1.5875 0 0 0 21.3331 -4.0696L 26.0172782157953 2.133272629851106 A 1.5875 1.5875 0 0 1 26.3257 2.89345L 27.014462346710925 8.414893060353288 A 1.5875 1.5875 0 0 0 28.9365 9.76755L 43.438362750292086 6.52143967636914 A 1.5875 1.5875 0 0 1 45.2756 7.52412L 48.20171424926438 15.504733563257767 A 1.5875 1.5875 0 0 1 46.4712 17.6205L 39.76259638119547 16.594254463496664 A 1.5875 1.5875 0 0 0 38.9512 16.6824L 27.237844762538973 21.20058897801207 L 17.46825855353122 13.31560913945837 A 1.5875 1.5875 0 0 1 16.9863 12.657L 14.520691819667555 6.334081468347241 A 1.5875 1.5875 0 0 0 11.8232 5.89327L 6.374794426075264 12.417667463657661 A 1.5875 1.5875 0 0 0 6.42507 14.5101L 16.487208445427925 25.446009326701866 A 1.5875 1.5875 0 0 1 16.2768 27.7869L 11.839462790288774 31.14408431994901 A 1.5875 1.5875 0 0 0 11.3353 31.7913L 8.305595045525205 38.949338935454854 A 1.5875 1.5875 0 0 1 6.90391 39.9169L -1.252447723582407 40.22672026778303 L -1.34734241740461 31.73526124924473 A 1.5875 1.5875 0 0 1 0.234946 30.13L 3.552747943904268 30.119345199537662 A 1.5875 1.5875 0 0 0 4.94678 29.2819L 6.211321163793077 26.9229458865077 A 1.5875 1.5875 0 0 0 5.91423 25.0303L -0.624780236420132 18.72355022939497 A 1.5875 1.5875 0 0 0 -2.16266 18.3397L -5.619600648435432 19.326668294954892 A 1.5875 1.5875 0 0 0 -6.75948 20.6601" stroke="#000000" stroke-width="0.35 px" style="stroke-width:0.35;stroke-miterlimit:4;stroke-dasharray:none;fill:none;fill-rule: evenodd "/>
<title>b'Sketch'</title>
</g>
</svg>